<mxfile host="Electron" agent="Mozilla/5.0 (Windows NT 10.0; Win64; x64) AppleWebKit/537.36 (KHTML, like Gecko) draw.io/28.1.2 Chrome/138.0.7204.243 Electron/37.4.0 Safari/537.36" version="28.1.2">
  <diagram name="Seite-1" id="_QbvOlxKc7IzmPnlmStg">
    <mxGraphModel dx="1426" dy="841" grid="1" gridSize="10" guides="1" tooltips="1" connect="1" arrows="1" fold="1" page="1" pageScale="1" pageWidth="827" pageHeight="1169" math="0" shadow="0">
      <root>
        <mxCell id="0" />
        <mxCell id="1" parent="0" />
        <mxCell id="N9iJWJ0JXCROykkr9DmS-1" value="&lt;b&gt;&lt;font style=&quot;font-size: 35px;&quot;&gt;Hello Meister!&lt;/font&gt;&lt;/b&gt;" style="text;html=1;align=center;verticalAlign=middle;whiteSpace=wrap;rounded=0;" vertex="1" parent="1">
          <mxGeometry x="10" y="10" width="270" height="50" as="geometry" />
        </mxCell>
        <mxCell id="N9iJWJ0JXCROykkr9DmS-8" value="" style="edgeStyle=orthogonalEdgeStyle;rounded=0;orthogonalLoop=1;jettySize=auto;html=1;" edge="1" parent="1" source="N9iJWJ0JXCROykkr9DmS-2" target="N9iJWJ0JXCROykkr9DmS-3">
          <mxGeometry relative="1" as="geometry" />
        </mxCell>
        <mxCell id="N9iJWJ0JXCROykkr9DmS-2" value="start" style="ellipse;whiteSpace=wrap;html=1;" vertex="1" parent="1">
          <mxGeometry x="170" y="160" width="120" height="80" as="geometry" />
        </mxCell>
        <mxCell id="N9iJWJ0JXCROykkr9DmS-9" value="" style="edgeStyle=orthogonalEdgeStyle;rounded=0;orthogonalLoop=1;jettySize=auto;html=1;" edge="1" parent="1" source="N9iJWJ0JXCROykkr9DmS-3" target="N9iJWJ0JXCROykkr9DmS-4">
          <mxGeometry relative="1" as="geometry" />
        </mxCell>
        <mxCell id="N9iJWJ0JXCROykkr9DmS-3" value="Print: What is your name?" style="rounded=1;whiteSpace=wrap;html=1;" vertex="1" parent="1">
          <mxGeometry x="170" y="300" width="120" height="60" as="geometry" />
        </mxCell>
        <mxCell id="N9iJWJ0JXCROykkr9DmS-10" value="" style="edgeStyle=orthogonalEdgeStyle;rounded=0;orthogonalLoop=1;jettySize=auto;html=1;" edge="1" parent="1" source="N9iJWJ0JXCROykkr9DmS-4" target="N9iJWJ0JXCROykkr9DmS-5">
          <mxGeometry relative="1" as="geometry" />
        </mxCell>
        <mxCell id="N9iJWJ0JXCROykkr9DmS-4" value="input : name" style="shape=parallelogram;perimeter=parallelogramPerimeter;whiteSpace=wrap;html=1;fixedSize=1;" vertex="1" parent="1">
          <mxGeometry x="170" y="410" width="120" height="60" as="geometry" />
        </mxCell>
        <mxCell id="N9iJWJ0JXCROykkr9DmS-11" value="" style="edgeStyle=orthogonalEdgeStyle;rounded=0;orthogonalLoop=1;jettySize=auto;html=1;" edge="1" parent="1" source="N9iJWJ0JXCROykkr9DmS-5" target="N9iJWJ0JXCROykkr9DmS-6">
          <mxGeometry relative="1" as="geometry" />
        </mxCell>
        <mxCell id="N9iJWJ0JXCROykkr9DmS-5" value="print : Hello Meister name" style="rounded=1;whiteSpace=wrap;html=1;" vertex="1" parent="1">
          <mxGeometry x="170" y="510" width="120" height="60" as="geometry" />
        </mxCell>
        <mxCell id="N9iJWJ0JXCROykkr9DmS-6" value="end" style="ellipse;whiteSpace=wrap;html=1;" vertex="1" parent="1">
          <mxGeometry x="170" y="620" width="120" height="80" as="geometry" />
        </mxCell>
        <mxCell id="N9iJWJ0JXCROykkr9DmS-7" value="&lt;h1 style=&quot;margin-top: 0px;&quot;&gt;PS Code&lt;/h1&gt;&lt;div&gt;START&lt;/div&gt;&lt;div&gt;&lt;br&gt;&lt;/div&gt;&lt;div&gt;&lt;span style=&quot;white-space: pre;&quot;&gt;&#x9;&lt;/span&gt;SET name: null&lt;/div&gt;&lt;div&gt;&lt;span style=&quot;white-space: pre;&quot;&gt;&#x9;&lt;/span&gt;&lt;br&gt;&lt;/div&gt;&lt;div&gt;&lt;span style=&quot;white-space: pre;&quot;&gt;&#x9;&lt;/span&gt;PRINT : what is your name?&lt;br&gt;&lt;/div&gt;&lt;div&gt;&lt;br&gt;&lt;/div&gt;&lt;div&gt;&lt;span style=&quot;white-space: pre;&quot;&gt;&#x9;&lt;/span&gt;GET INPUT&lt;br&gt;&lt;/div&gt;&lt;div&gt;&lt;br&gt;&lt;/div&gt;&lt;div&gt;&lt;span style=&quot;white-space: pre;&quot;&gt;&#x9;&lt;/span&gt;name = INPUT&lt;br&gt;&lt;/div&gt;&lt;div&gt;&lt;br&gt;&lt;/div&gt;&lt;div&gt;&lt;span style=&quot;white-space: pre;&quot;&gt;&#x9;&lt;/span&gt;PRINT : Hello Meister + name&lt;br&gt;&lt;/div&gt;&lt;div&gt;&lt;br&gt;&lt;/div&gt;&lt;div&gt;END&lt;/div&gt;&lt;div&gt;&lt;br&gt;&lt;/div&gt;" style="text;html=1;whiteSpace=wrap;overflow=hidden;rounded=0;" vertex="1" parent="1">
          <mxGeometry x="510" y="60" width="270" height="340" as="geometry" />
        </mxCell>
      </root>
    </mxGraphModel>
  </diagram>
</mxfile>
